<?xml version="1.0" encoding="UTF-8"?>
<!DOCTYPE svg PUBLIC "-//W3C//DTD SVG 1.1//EN" "http://www.w3.org/Graphics/SVG/1.1/DTD/svg11.dtd">
<!-- Creator: CorelDRAW 2020 (64 Bit) -->
<svg xmlns="http://www.w3.org/2000/svg" xml:space="preserve" width="610mm" height="330mm" version="1.1" style="shape-rendering:geometricPrecision; text-rendering:geometricPrecision; image-rendering:optimizeQuality; fill-rule:evenodd; clip-rule:evenodd"
viewBox="0 0 61000 33000"
 xmlns:xlink="http://www.w3.org/1999/xlink"
 xmlns:xodm="http://www.corel.com/coreldraw/odm/2003">
 <defs>
       <symbol id="full" viewBox="0 0 376 178">
        <g class="signet" style="fill: currentColor">
        <path class="cls-2" d="M14069.42 9172.14l31168.25 0 0 7057.42 -31414.68 0 0 -7057.42 246.43 0zm30675.4 492.85l-30428.98 0 0 6071.72 30428.98 0 0 -6071.72z"/>
        <path class="fil0" d="M29530.33 2983.36c5589.81,0 10656.9,1059.63 14330.21,2772.68 3759.56,1753.06 6084.93,4206.67 6084.93,6944.85 0,2738.18 -2325.46,5191.68 -6084.93,6944.85 -3673.41,1712.95 -8740.6,2772.58 -14330.21,2772.58 -5589.61,0 -10656.8,-1059.63 -14330.21,-2772.58 -3759.47,-1753.17 -6084.93,-4206.67 -6084.93,-6944.85 0,-2738.18 2325.37,-5191.79 6084.93,-6944.85 3673.31,-1713.05 8740.6,-2772.68 14330.21,-2772.68zm14018.34 3442.56c-3581.45,-1670.17 -8537.35,-2703.29 -14018.34,-2703.29 -5480.99,0 -10436.89,1033.12 -14018.34,2703.29 -3495.49,1629.95 -5657.52,3850.54 -5657.52,6274.97 0,2424.43 2162.13,4645.01 5657.52,6274.97 3581.35,1670.07 8537.35,2703.18 14018.34,2703.18 5480.99,0 10436.99,-1033.11 14018.34,-2703.18 3495.39,-1629.96 5657.52,-3850.54 5657.52,-6274.97 0,-2424.43 -2162.03,-4645.02 -5657.52,-6274.97z"/>
        <polygon class="fil0" points="15894.76,15295.69 15894.76,10156.61 17508.54,10156.61 18462.19,13661.62 19404.69,10156.61 21022.18,10156.61 21022.18,15295.69 20026.42,15295.69 20022.71,11249.98 18973.69,15295.69 17938.3,15295.69 16894.24,11249.98 16890.52,15295.69 "/>
        <path class="fil0" d="M26455.53 15295.69l-1128.98 0 -447.02 -1169.93 -2076.03 0 -430.15 1169.93 -1108.51 0 2009.77 -5139.08 1107.3 0 2073.62 5139.08zm-1915.78 -2038.4l-719.33 -1902.04 -698.83 1902.04 1418.16 0z"/>
        <polygon class="fil0" points="26833.43,15295.69 26833.43,10156.61 27855.29,10156.61 27855.29,15295.69 "/>
        <path class="fil0" d="M28615.24 12757.25c0,-523.95 77.52,-964.17 231.39,-1320.65 113.93,-261.98 271.33,-497.64 469.82,-705.79 198.5,-208.14 415.79,-362.46 651.88,-464.14 314.78,-135.18 677.72,-203.36 1088.81,-203.36 744.67,0 1339,235.66 1786.5,705.78 446.33,471.32 669.5,1125.67 669.5,1964.24 0,831.39 -221.99,1482.15 -664.81,1951.08 -442.8,470.12 -1035.94,704.59 -1777.1,704.59 -750.54,0 -1348.38,-233.27 -1791.19,-701 -442.81,-466.54 -664.8,-1110.12 -664.8,-1930.75zm1050.06 -34.69c0,582.58 132.72,1023.99 397,1325.44 264.27,300.26 600.19,450.99 1006.59,450.99 407.57,0 741.14,-149.53 1003.07,-447.4 260.75,-299.06 391.13,-746.45 391.13,-1343.38 0,-589.75 -126.86,-1029.97 -381.73,-1319.46 -253.71,-290.69 -590.81,-435.44 -1012.47,-435.44 -420.5,0 -759.94,147.14 -1017.17,440.22 -257.23,294.28 -386.42,736.89 -386.42,1329.03z"/>
        <polygon class="fil0" points="34336.53,15295.69 34336.53,10199.68 35358.39,10199.68 35358.39,14427.21 37888.39,14427.21 37888.39,15295.69 "/>
        <path class="fil0" d="M43342.45 15295.69l-1128.98 0 -447.02 -1169.93 -2076.03 0 -430.15 1169.93 -1108.5 0 2009.76 -5139.08 1107.3 0 2073.62 5139.08zm-1915.78 -2038.4l-719.32 -1902.04 -698.84 1902.04 1418.16 0z"/>
        <path class="fil0" d="M17534.33 28394.15l0 -3123.34 978.75 0 578.4 2130.21 571.62 -2130.21 981.02 0 0 3123.34 -603.93 0 -2.26 -2458.83 -636.22 2458.83 -627.98 0 -633.22 -2458.83 -2.25 2458.83 -603.93 0zm6670.27 0l-703.84 0 -278.68 -711.04 -1294.24 0 -268.16 711.04 -691.06 0 1252.92 -3123.34 690.32 0 1292.74 3123.34zm-1194.34 -1238.87l-448.44 -1155.98 -435.67 1155.98 884.11 0zm-680.54 -2168.02l306.47 -636.88 689.56 0 -608.44 636.88 -387.59 0zm4816.4 3011.38c159.25,111.24 332.77,199.21 520.56,264.64l-239.62 449.31c-97.65,-28.35 -193.8,-67.61 -287.69,-117.78 -20.28,-10.18 -164.51,-102.51 -432.67,-278.45 -211.08,89.42 -445.43,134.5 -702.33,134.5 -495.76,0 -884.87,-141.77 -1165.8,-424.59 -280.93,-283.54 -421.39,-681.23 -421.39,-1193.79 0,-511.11 141.21,-908.79 422.9,-1192.34 281.68,-284.27 664.01,-426.04 1146.26,-426.04 478.49,0 857.83,141.77 1138,426.04 280.18,283.55 420.65,680.51 420.65,1191.61 0,269.73 -39.06,507.47 -117.18,712.5 -58.59,156.31 -152.49,308.26 -281.69,454.39zm-522.79 -354.79c83.37,-95.97 145.71,-210.84 187.79,-346.07 41.3,-135.23 62.34,-290.09 62.34,-465.3 0,-361.34 -81.88,-631.07 -246.38,-809.92 -164.51,-178.12 -379.34,-267.55 -644.49,-267.55 -265.91,0 -481.49,89.43 -645.99,269.01 -165.26,179.57 -247.9,449.3 -247.9,809.91 0,365.7 82.64,639.79 247.9,820.83 165.24,181.75 374.07,272.63 626.45,272.63 94.65,0 183.29,-15.26 266.67,-45.07 -131.46,-83.61 -265.91,-148.32 -401.87,-194.85l182.53 -366.42c213.32,71.97 417.64,178.85 612.95,322.8zm1434.7 -2373.04l653.5 0 0 1692.54c0,269 8.27,442.76 24.05,522.01 27.79,127.95 93.14,231.19 196.8,308.26 104.41,77.79 246.38,116.32 426.66,116.32 182.53,0 320.74,-36.35 413.88,-109.78 93.14,-73.43 148.73,-162.85 167.51,-269.73 18.78,-106.87 28.54,-283.54 28.54,-530.73l0 -1728.89 653.51 0 0 1642.37c0,375.15 -17.28,640.52 -52.58,795.38 -35.3,154.85 -99.91,285.72 -194.56,392.59 -93.89,106.88 -220.08,191.22 -377.82,254.47 -158.5,63.25 -364.32,95.24 -618.96,95.24 -307.22,0 -540.08,-34.17 -698.57,-103.24 -158.5,-69.07 -283.94,-158.49 -376.33,-269 -92.39,-110.51 -152.49,-225.38 -181.78,-346.8 -42.82,-178.85 -63.85,-443.49 -63.85,-793.19l0 -1667.82zm3232.22 3123.34l0 -3123.34 653.51 0 0 3123.34 -653.51 0zm1274.72 0l0 -3123.34 632.47 0 1328.05 2093.13 0 -2093.13 603.93 0 0 3123.34 -652.75 0 -1307.77 -2053.15 0 2053.15 -603.93 0zm6161.74 0l-703.84 0 -278.68 -711.04 -1294.24 0 -268.17 711.04 -691.06 0 1252.93 -3123.34 690.31 0 1292.75 3123.34zm-1194.35 -1238.87l-448.44 -1155.98 -435.67 1155.98 884.11 0zm1370.87 226.84l635.47 -61.07c38.31,205.75 114.93,356.24 231.36,452.94 116.43,96.69 273.42,144.68 470.98,144.68 208.81,0 366.56,-42.9 472.47,-128.69 105.91,-85.79 159.24,-186.12 159.24,-300.99 0,-74.16 -22.53,-136.68 -66.84,-189.03 -44.33,-51.62 -122.44,-96.69 -233.61,-134.5 -75.87,-26.17 -248.64,-71.25 -519.05,-136.68 -347.79,-84.34 -591.92,-187.58 -732.38,-310.45 -197.56,-172.3 -295.96,-382.42 -295.96,-630.33 0,-159.23 46.57,-308.99 138.97,-447.86 93.14,-138.86 226.84,-244.28 401.86,-316.99 175.02,-72.7 385.35,-109.05 633.23,-109.05 403.37,0 707.59,86.52 911.16,260.28 204.31,173.76 310.97,404.96 321.49,695.04l-653.51 21.81c-27.79,-161.4 -87.13,-277 -178.02,-347.52 -90.89,-70.52 -227.6,-106.15 -409.38,-106.15 -187.79,0 -335.02,37.81 -440.93,113.42 -68.35,48.71 -102.91,113.42 -102.91,194.85 0,74.15 32.29,137.41 96.9,189.75 81.88,67.62 280.93,137.41 597.17,210.12 316.23,71.97 549.84,147.58 700.83,224.65 151.73,77.79 270.42,183.21 356.04,317.71 85.63,134.51 128.45,300.27 128.45,497.3 0,178.85 -51.07,346.79 -153.99,503.1 -102.9,156.32 -247.88,272.64 -435.67,348.25 -187.79,76.34 -422.14,114.15 -702.33,114.15 -407.88,0 -721.11,-90.88 -939.7,-273.37 -218.58,-181.76 -348.53,-447.12 -391.34,-795.37z"/>
                 <style type="text/css">
   <![CDATA[
    .fil0 {fill:white;fill-rule:nonzero}
   ]]>
  </style>
         </g>
      <!--<g class="signet" style="fill: currentColor">
        <path class="cls-2" d="M128,56.1244,89,33.6077a12,12,0,0,0-12,0L38,56.1243a12.0339,12.0339,0,0,0-6,10.3924V111.55a12.0333,12.0333,0,0,0,6,10.3923L77,144.459a12,12,0,0,0,12,0l39-22.5167a12.0333,12.0333,0,0,0,6-10.3923V66.5167A12.0336,12.0336,0,0,0,128,56.1244ZM126,111.55a4,4,0,0,1-2,3.4641L85,137.5308a4,4,0,0,1-4,0L42,115.0141a4,4,0,0,1-2-3.4641V66.5167a4,4,0,0,1,2-3.4641L81,40.5359a4,4,0,0,1,4,0l39,22.5167a4,4,0,0,1,2,3.4641Z"/>
        <path class="cls-2" d="M106.0216,102.0713h-2.866a3.9993,3.9993,0,0,0-1.9246.4935L83.95,112.05,64,100.5315V77.554L83.95,66.0354,101.239,75.49a4.0007,4.0007,0,0,0,1.9192.4905h2.8633a2,2,0,0,0,2-2V71.2691a2,2,0,0,0-1.04-1.7547L87.793,59.0188a8.0391,8.0391,0,0,0-7.8428.09L60,70.6262A8.0245,8.0245,0,0,0,56,77.5549v22.976a8,8,0,0,0,4,6.9283l19.95,11.5186a8.0429,8.0429,0,0,0,7.8433.0879l19.19-10.5312a2,2,0,0,0,1.0377-1.7533v-2.71A2,2,0,0,0,106.0216,102.0713Z"/>
      </g>-->
      <!--<g class="text" style="fill: currentColor">
        <path class="cls-2" d="M200.7446,65.4285a15.0166,15.0166,0,0,0-15,14.9995V97.7054a15,15,0,0,0,30,0V80.428A15.0166,15.0166,0,0,0,200.7446,65.4285Zm7,32.2769a7,7,0,0,1-14,0V80.428a7,7,0,0,1,14,0Z"/>
        <path class="cls-2" d="M164.0789,73.4878a7.01,7.01,0,0,1,7.868,6.0752.9894.9894,0,0,0,.9843.865h6.0305a1.0108,1.0108,0,0,0,.9987-1.0971,15.0182,15.0182,0,0,0-15.7163-13.8837A15.2881,15.2881,0,0,0,150,80.8635V97.27a15.2881,15.2881,0,0,0,14.2441,15.4163A15.0183,15.0183,0,0,0,179.96,98.8025a1.0107,1.0107,0,0,0-.9987-1.0971h-6.0305a.9894.9894,0,0,0-.9843.865,7.01,7.01,0,0,1-7.868,6.0757A7.1643,7.1643,0,0,1,158,97.4612V80.6724A7.1639,7.1639,0,0,1,164.0789,73.4878Z"/>
        <path class="cls-2" d="M246.9221,92.9944a12.1584,12.1584,0,0,0,7.1843-11.0771V78.2161A12.1494,12.1494,0,0,0,241.957,66.0667H225a1,1,0,0,0-1,1v44a1,1,0,0,0,1,1h6a1,1,0,0,0,1-1v-17h6.6216l7.9153,17.4138a1,1,0,0,0,.91.5862h6.591a1,1,0,0,0,.91-1.4138Zm-.8157-11.0771a4.1538,4.1538,0,0,1-4.1489,4.1494h-9.8511v-12h9.8511a4.1538,4.1538,0,0,1,4.1489,4.1494Z"/>
        <path class="cls-2" d="M289,66.0667H263a1,1,0,0,0-1,1v44a1,1,0,0,0,1,1h26a1,1,0,0,0,1-1v-6a1,1,0,0,0-1-1H270v-12h13a1,1,0,0,0,1-1v-6a1,1,0,0,0-1-1H270v-10h19a1,1,0,0,0,1-1v-6A1,1,0,0,0,289,66.0667Z"/>
        <path class="cls-2" d="M327,66.0667h-6a1,1,0,0,0-1,1V89.7142a7.0066,7.0066,0,1,1-14,0V67.0667a1,1,0,0,0-1-1h-6a1,1,0,0,0-1,1V89.7142a15.0031,15.0031,0,1,0,30,0V67.0667A1,1,0,0,0,327,66.0667Z"/>
        <rect class="cls-2" x="336" y="66.0667" width="8" height="38" rx="1"/>
      </g>-->
    </symbol>
 </defs>
</svg>
